<?xml version="1.0" encoding="utf-8"?>
<!-- Generator: Adobe Illustrator 13.0.0, SVG Export Plug-In  -->
<!DOCTYPE svg PUBLIC "-//W3C//DTD SVG 1.1//EN" "http://www.w3.org/Graphics/SVG/1.1/DTD/svg11.dtd" [
	<!ENTITY ns_flows "http://ns.adobe.com/Flows/1.0/">
]>
<svg version="1.1"
	 xmlns="http://www.w3.org/2000/svg" xmlns:xlink="http://www.w3.org/1999/xlink" xmlns:a="http://ns.adobe.com/AdobeSVGViewerExtensions/3.0/"
	 x="0px" y="0px" width="24px" height="24px" viewBox="0 0 72 72" enable-background="new 0 0 72 72" xml:space="preserve">
<defs>
</defs>
<g>
	<defs>
		<rect id="SVGID_1_" width="72" height="72"/>
	</defs>
	<clipPath id="SVGID_2_">
		<use xlink:href="#SVGID_1_"  overflow="visible"/>
	</clipPath>
</g>
<g>
	<g>
		<path fill="#00BCD4" d="M60,12H12c-3.314,0-6,2.686-6,6v36c0,3.314,2.686,6,6,6h48c3.314,0,6-2.686,6-6V18
			C66,14.686,63.314,12,60,12z M56.097,18.984l-4.376,4.35h-8.11l-4.386-4.35H56.097z M13.851,52.974l4.376-4.349h8.11l4.387,4.349
			H13.851z M31.857,51.811l-4.349-4.375v-7.918l4.349-2.901V51.811z M31.87,35.42l-4.349-2.902v-7.994l4.349-4.377V35.42z
			 M38.083,20.147l4.351,4.377v7.329l-4.351,2.902V20.147z M42.451,33.81h10.435l3.218,2.158l-3.218,2.205l-10.415-0.014
			l-3.25-2.184L42.451,33.81z M39.225,52.974l4.376-4.349h8.11l4.386,4.349H39.225z M57.234,51.811l-4.35-4.375v-7.328l4.35-2.903
			V51.811z"/>
	</g>
</g>
</svg>
