<?xml version="1.0" encoding="utf-8"?>
<!-- Generator: Adobe Illustrator 13.0.0, SVG Export Plug-In  -->
<!DOCTYPE svg PUBLIC "-//W3C//DTD SVG 1.1//EN" "http://www.w3.org/Graphics/SVG/1.1/DTD/svg11.dtd" [
	<!ENTITY ns_flows "http://ns.adobe.com/Flows/1.0/">
]>
<svg version="1.1"
	 xmlns="http://www.w3.org/2000/svg" xmlns:xlink="http://www.w3.org/1999/xlink" xmlns:a="http://ns.adobe.com/AdobeSVGViewerExtensions/3.0/"
	 x="0px" y="0px" width="24px" height="24px" viewBox="0 0 72 72" enable-background="new 0 0 72 72" xml:space="preserve">
<defs>
</defs>
<g>
	<defs>
		<rect id="SVGID_1_" width="72" height="72"/>
	</defs>
	<clipPath id="SVGID_2_">
		<use xlink:href="#SVGID_1_"  overflow="visible"/>
	</clipPath>
</g>
<g>
	<g>
		<path fill="#00BCD4" d="M64.75,7.25H7.25c-3.97,0-7.188,3.217-7.188,7.188v43.125c0,3.971,3.217,7.188,7.188,7.188h57.5
			c3.971,0,7.188-3.217,7.188-7.188V14.438C71.938,10.467,68.721,7.25,64.75,7.25z M60.073,15.616l-5.241,5.211h-9.716l-5.253-5.211
			H60.073z M9.467,56.333l5.242-5.21h9.715l5.255,5.21H9.467z M31.037,54.939l-5.209-5.24v-9.486l5.209-3.475V54.939z
			 M31.053,35.306l-5.209-3.478v-9.576l5.209-5.243V35.306z M38.495,17.01l5.212,5.243v8.78l-5.212,3.476V17.01z M43.729,33.376
			h12.499l3.854,2.585l-3.854,2.641l-12.476-0.016l-3.895-2.617L43.729,33.376z M39.863,56.333l5.241-5.21h9.716l5.253,5.21H39.863z
			 M61.438,54.939l-5.211-5.24V40.92l5.211-3.478V54.939z"/>
	</g>
</g>
</svg>
